<svg viewBox="0 0 82 36" xmlns="http://www.w3.org/2000/svg" xmlns:xlink="http://www.w3.org/1999/xlink" width="82.000000" height="36.000000" fill="none" customFrame="#000000">
	<rect id="Icons&amp;Logo/Logo Drink2Go" width="82.000000" height="36.000000" x="0.000000" y="0.000000" />
	<path id="g" d="M74.08 25.94C72.752 25.94 71.52 25.732 70.384 25.316C69.248 24.884 68.264 24.276 67.432 23.492C66.616 22.708 65.976 21.788 65.512 20.732C65.048 19.66 64.816 18.484 64.816 17.204C64.816 15.924 65.048 14.756 65.512 13.7C65.976 12.628 66.624 11.7 67.456 10.916C68.288 10.132 69.272 9.532 70.408 9.116C71.56 8.684 72.816 8.468 74.176 8.468C75.76 8.468 77.176 8.732 78.424 9.26C79.672 9.788 80.704 10.548 81.52 11.54L78.496 14.276C77.92 13.652 77.296 13.188 76.624 12.884C75.968 12.564 75.232 12.404 74.416 12.404C73.696 12.404 73.04 12.516 72.448 12.74C71.856 12.964 71.352 13.292 70.936 13.724C70.52 14.14 70.192 14.644 69.952 15.236C69.728 15.812 69.616 16.468 69.616 17.204C69.616 17.908 69.728 18.556 69.952 19.148C70.192 19.74 70.52 20.252 70.936 20.684C71.352 21.1 71.848 21.428 72.424 21.668C73.016 21.892 73.664 22.004 74.368 22.004C75.072 22.004 75.76 21.892 76.432 21.668C77.104 21.428 77.784 21.028 78.472 20.468L81.136 23.804C80.176 24.492 79.064 25.02 77.8 25.388C76.536 25.756 75.296 25.94 74.08 25.94ZM76.936 23.18L76.936 16.844L81.136 16.844L81.136 23.804L76.936 23.18Z" fill="rgb(51,51,51)" fill-rule="nonzero" />
	<path id="2" d="M58 18C58 20.8737 57.4014 23.5901 56.3369 26L43 26C45.4627 22.2281 48 17.6606 48 13C48 7.00236 43.9385 1.95335 38.4158 0.453392C39.5681 0.156712 40.7678 0 42 0C50.8366 0 58 8.05888 58 18ZM44 13C44 8.02944 39.9706 4 35 4C28.3493 4 26 12.5071 26 18C26 27.9411 33.1634 36 42 36C46.7387 36 50.9962 33.6825 53.9259 30L35 30C35.3518 29.5514 35.7202 29.0891 36.0987 28.6142C39.6157 24.2012 44 18.6997 44 13Z" fill="rgb(119.668,88.918,207.188)" fill-rule="evenodd" />
	<path id="D" d="M1.85188 25.604L1.85188 8.804L9.79588 8.804C11.6519 8.804 13.2839 9.148 14.6919 9.836C16.0999 10.524 17.1959 11.492 17.9799 12.74C18.7799 13.988 19.1799 15.476 19.1799 17.204C19.1799 18.916 18.7799 20.404 17.9799 21.668C17.1959 22.916 16.0999 23.884 14.6919 24.572C13.2839 25.26 11.6519 25.604 9.79588 25.604L1.85188 25.604ZM6.60388 21.812L9.60388 21.812C10.5639 21.812 11.3959 21.636 12.0999 21.284C12.8199 20.916 13.3799 20.388 13.7799 19.7C14.1799 18.996 14.3799 18.164 14.3799 17.204C14.3799 16.228 14.1799 15.396 13.7799 14.708C13.3799 14.02 12.8199 13.5 12.0999 13.148C11.3959 12.78 10.5639 12.596 9.60388 12.596L6.60388 12.596L6.60388 21.812Z" fill="rgb(51,51,51)" fill-rule="nonzero" />
</svg>
