<svg viewBox="0 0 170 36" xmlns="http://www.w3.org/2000/svg" xmlns:xlink="http://www.w3.org/1999/xlink" width="170.000000" height="36.000000" fill="none" customFrame="#000000">
	<rect id="Icons&amp;Logo/Logo Drink2Go" width="170.000000" height="36.000000" x="0.000000" y="0.000000" />
	<path id="go" d="M140.08 25.94C138.752 25.94 137.52 25.732 136.384 25.316C135.248 24.884 134.264 24.276 133.432 23.492C132.616 22.708 131.976 21.788 131.512 20.732C131.048 19.66 130.816 18.484 130.816 17.204C130.816 15.924 131.048 14.756 131.512 13.7C131.976 12.628 132.624 11.7 133.456 10.916C134.288 10.132 135.272 9.532 136.408 9.116C137.56 8.684 138.816 8.468 140.176 8.468C141.76 8.468 143.176 8.732 144.424 9.26C145.672 9.788 146.704 10.548 147.52 11.54L144.496 14.276C143.92 13.652 143.296 13.188 142.624 12.884C141.968 12.564 141.232 12.404 140.416 12.404C139.696 12.404 139.04 12.516 138.448 12.74C137.856 12.964 137.352 13.292 136.936 13.724C136.52 14.14 136.192 14.644 135.952 15.236C135.728 15.812 135.616 16.468 135.616 17.204C135.616 17.908 135.728 18.556 135.952 19.148C136.192 19.74 136.52 20.252 136.936 20.684C137.352 21.1 137.848 21.428 138.424 21.668C139.016 21.892 139.664 22.004 140.368 22.004C141.072 22.004 141.76 21.892 142.432 21.668C143.104 21.428 143.784 21.028 144.472 20.468L147.136 23.804C146.176 24.492 145.064 25.02 143.8 25.388C142.536 25.756 141.296 25.94 140.08 25.94ZM142.936 23.18L142.936 16.844L147.136 16.844L147.136 23.804L142.936 23.18ZM159.101 25.94C157.757 25.94 156.517 25.724 155.381 25.292C154.245 24.86 153.253 24.252 152.405 23.468C151.573 22.668 150.925 21.74 150.461 20.684C149.997 19.628 149.765 18.468 149.765 17.204C149.765 15.94 149.997 14.78 150.461 13.724C150.925 12.668 151.573 11.748 152.405 10.964C153.253 10.164 154.245 9.548 155.381 9.116C156.517 8.684 157.757 8.468 159.101 8.468C160.461 8.468 161.701 8.684 162.821 9.116C163.957 9.548 164.941 10.164 165.773 10.964C166.605 11.748 167.253 12.668 167.717 13.724C168.197 14.78 168.437 15.94 168.437 17.204C168.437 18.468 168.197 19.636 167.717 20.708C167.253 21.764 166.605 22.684 165.773 23.468C164.941 24.252 163.957 24.86 162.821 25.292C161.701 25.724 160.461 25.94 159.101 25.94ZM159.101 22.004C159.741 22.004 160.333 21.892 160.877 21.668C161.437 21.444 161.917 21.124 162.317 20.708C162.733 20.276 163.053 19.764 163.277 19.172C163.517 18.58 163.637 17.924 163.637 17.204C163.637 16.468 163.517 15.812 163.277 15.236C163.053 14.644 162.733 14.14 162.317 13.724C161.917 13.292 161.437 12.964 160.877 12.74C160.333 12.516 159.741 12.404 159.101 12.404C158.461 12.404 157.861 12.516 157.301 12.74C156.757 12.964 156.277 13.292 155.861 13.724C155.461 14.14 155.141 14.644 154.901 15.236C154.677 15.812 154.565 16.468 154.565 17.204C154.565 17.924 154.677 18.58 154.901 19.172C155.141 19.764 155.461 20.276 155.861 20.708C156.277 21.124 156.757 21.444 157.301 21.668C157.861 21.892 158.461 22.004 159.101 22.004Z" fill="rgb(51,51,51)" fill-rule="nonzero" />
	<path id="2" d="M124 18C124 20.8737 123.401 23.5901 122.337 26L109 26C111.463 22.2281 114 17.6606 114 13C114 7.00236 109.938 1.95335 104.416 0.453392C105.568 0.156712 106.768 0 108 0C116.837 0 124 8.05888 124 18ZM110 13C110 8.02944 105.971 4 101 4C94.3493 4 92 12.5071 92 18C92 27.9411 99.1634 36 108 36C112.739 36 116.996 33.6825 119.926 30L101 30C101.352 29.5514 101.72 29.0891 102.099 28.6142C105.616 24.2012 110 18.6997 110 13Z" fill="rgb(119.668,88.918,207.188)" fill-rule="evenodd" />
	<path id="Drink" d="M2.65063 25.604L2.65063 8.804L10.5946 8.804C12.4506 8.804 14.0826 9.148 15.4906 9.836C16.8986 10.524 17.9946 11.492 18.7786 12.74C19.5786 13.988 19.9786 15.476 19.9786 17.204C19.9786 18.916 19.5786 20.404 18.7786 21.668C17.9946 22.916 16.8986 23.884 15.4906 24.572C14.0826 25.26 12.4506 25.604 10.5946 25.604L2.65063 25.604ZM7.40263 21.812L10.4026 21.812C11.3626 21.812 12.1946 21.636 12.8986 21.284C13.6186 20.916 14.1786 20.388 14.5786 19.7C14.9786 18.996 15.1786 18.164 15.1786 17.204C15.1786 16.228 14.9786 15.396 14.5786 14.708C14.1786 14.02 13.6186 13.5 12.8986 13.148C12.1946 12.78 11.3626 12.596 10.4026 12.596L7.40263 12.596L7.40263 21.812ZM22.9588 25.604L22.9588 8.804L30.6388 8.804C32.1748 8.804 33.4948 9.052 34.5988 9.548C35.7188 10.044 36.5828 10.764 37.1908 11.708C37.7988 12.636 38.1028 13.74 38.1028 15.02C38.1028 16.284 37.7988 17.38 37.1908 18.308C36.5828 19.22 35.7188 19.924 34.5988 20.42C33.4948 20.9 32.1748 21.14 30.6388 21.14L25.5988 21.14L27.7108 19.148L27.7108 25.604L22.9588 25.604ZM33.3508 25.604L29.1748 19.484L34.2388 19.484L38.4388 25.604L33.3508 25.604ZM27.7108 19.652L25.5988 17.468L30.3508 17.468C31.3428 17.468 32.0788 17.252 32.5588 16.82C33.0548 16.388 33.3028 15.788 33.3028 15.02C33.3028 14.236 33.0548 13.628 32.5588 13.196C32.0788 12.764 31.3428 12.548 30.3508 12.548L25.5988 12.548L27.7108 10.364L27.7108 19.652ZM41.2044 25.604L41.2044 8.804L45.9564 8.804L45.9564 25.604L41.2044 25.604ZM49.8172 25.604L49.8172 8.804L53.7292 8.804L62.9932 19.988L61.1452 19.988L61.1452 8.804L65.8012 8.804L65.8012 25.604L61.8892 25.604L52.6252 14.42L54.4732 14.42L54.4732 25.604L49.8172 25.604ZM73.8811 21.884L73.6171 16.556L80.8411 8.804L86.0731 8.804L78.8731 16.604L76.2331 19.364L73.8811 21.884ZM69.6331 25.604L69.6331 8.804L74.3371 8.804L74.3371 25.604L69.6331 25.604ZM80.9131 25.604L75.4411 18.668L78.5371 15.356L86.4331 25.604L80.9131 25.604Z" fill="rgb(51,51,51)" fill-rule="nonzero" />
</svg>
