<svg viewBox="0 0 52 56" xmlns="http://www.w3.org/2000/svg" xmlns:xlink="http://www.w3.org/1999/xlink" width="52.000000" height="56.000000" fill="none" customFrame="#000000">
	<g id="icon">
		<path id="Rectangle 39" d="M4 4L52 4L48 48L28 56L8 48L4 4Z" fill="rgb(240,235,255)" fill-rule="nonzero" />
		<path id="Union" d="M1.00412 0L0 0L0.0909091 1L4 44L24 52L44 44L47.9091 1L48 0L46.9959 0L1.00412 0ZM1.09503 1L1.45867 5L5 5L5.50198 5L6.00396 5L6.9 5L10.7 5L14.5 5L18.3 5L22.1 5L25.9 5L29.7 5L33.5 5L37.3 5L41.1 5L41.996 5L42.498 5L43 5L46.5413 5L46.905 1L1.09503 1ZM41.9069 6L41.1 6L37.3 6L33.5 6L29.7 6L25.9 6L22.1 6L18.3 6L14.5 6L10.7 6L6.9 6L6.09307 6L6.19397 7.1324L5.69594 7.17678L5.19792 7.22115L5.08911 6L1.54958 6L4.94041 43.2991L24 50.923L43.0596 43.2991L46.4504 6L42.9109 6L42.8021 7.22115L42.3041 7.17678L41.806 7.1324L41.9069 6ZM6.09178 11.6191L5.59375 11.6635L5.98958 16.1058L6.48761 16.0614L6.98564 16.017L6.5898 11.5747L6.09178 11.6191ZM6.88344 20.5037L6.38542 20.5481L6.78125 24.9904L7.27928 24.946L7.7773 24.9016L7.38147 20.4593L6.88344 20.5037ZM7.67511 29.3883L7.17708 29.4327L7.57292 33.875L8.07094 33.8306L8.56897 33.7862L8.17314 29.3439L7.67511 29.3883ZM8.46678 38.2729L7.96875 38.3173L8.16667 40.5385L10.1458 41.3462L10.3348 40.8832L10.5237 40.4203L9.10864 39.8428L8.9648 38.2286L8.46678 38.2729ZM14.2931 42.4986L14.1042 42.9615L18.0625 44.5769L18.2514 44.114L18.4403 43.6511L14.482 42.0357L14.2931 42.4986ZM22.2098 45.7294L22.0208 46.1923L24 47L25.9792 46.1923L25.7902 45.7294L25.6013 45.2664L24 45.9199L22.3987 45.2664L22.2098 45.7294ZM29.7486 44.114L29.9375 44.5769L33.8958 42.9615L33.7069 42.4986L33.518 42.0357L29.5597 43.6511L29.7486 44.114ZM37.6652 40.8832L37.8542 41.3462L39.8333 40.5385L40.0313 38.3173L39.5332 38.2729L39.0352 38.2286L38.8914 39.8428L37.4763 40.4203L37.6652 40.8832ZM39.9291 33.8306L40.4271 33.875L40.8229 29.4327L40.3249 29.3883L39.8269 29.3439L39.431 33.7862L39.9291 33.8306ZM40.7207 24.946L41.2188 24.9904L41.6146 20.5481L41.1166 20.5037L40.6185 20.4593L40.2227 24.9016L40.7207 24.946ZM41.5124 16.0614L42.0104 16.1058L42.4062 11.6635L41.9082 11.6191L41.4102 11.5747L41.0144 16.017L41.5124 16.0614Z" fill="rgb(119.668,88.918,207.188)" fill-rule="evenodd" />
	</g>
</svg>
