<svg viewBox="0 0 16 16" xmlns="http://www.w3.org/2000/svg" xmlns:xlink="http://www.w3.org/1999/xlink" width="16.000000" height="16.000000" fill="none" customFrame="#000000">
	<path id="Union" d="M5.66091 3.87546L5.89351 6.66667L10.1065 6.66667L10.3391 3.87546C10.4531 2.50699 9.37321 1.33333 8 1.33333C6.62679 1.33333 5.54687 2.50699 5.66091 3.87546ZM11.4444 6.66667L11.6678 3.98618C11.8466 1.84036 10.1533 0 8 0C5.84674 0 4.15336 1.84036 4.33218 3.98618L4.55556 6.66667L1.34687 6.66667L0 6.66667L0.190476 8L1.00626 13.7105C1.19393 15.0242 2.31905 16 3.64612 16L12.3539 16C13.6809 16 14.8061 15.0242 14.9937 13.7105L15.8095 8L16 6.66667L14.6531 6.66667L11.4444 6.66667ZM11.3333 8L11.2801 8L11.0579 10.6667L14.0817 10.6667L14.4627 8L11.3333 8ZM9.94213 8L6.05787 8L6.28009 10.6667L9.71991 10.6667L9.94213 8ZM4.71991 8L4.66667 8L1.53735 8L1.9183 10.6667L4.94213 10.6667L4.71991 8ZM6.61342 14.6667L6.3912 12L9.6088 12L9.38658 14.6667L6.61342 14.6667ZM10.9468 12L10.7245 14.6667L12.3539 14.6667C13.0174 14.6667 13.58 14.1788 13.6738 13.5219L13.8912 12L10.9468 12ZM5.05324 12L5.27547 14.6667L3.64612 14.6667C2.98259 14.6667 2.42003 14.1788 2.32619 13.5219L2.10877 12L5.05324 12Z" fill="rgb(51,51,51)" fill-rule="evenodd" />
</svg>
