<svg viewBox="0 0 32 36" xmlns="http://www.w3.org/2000/svg" xmlns:xlink="http://www.w3.org/1999/xlink" width="32.000000" height="36.000000" fill="none" customFrame="#000000">
	<rect id="Icons&amp;Logo/Logo Drink2Go" width="32.000000" height="36.000000" x="0.000000" y="0.000000" />
	<path id="2" d="M32 18C32 20.8737 31.4014 23.5901 30.3369 26L17 26C19.4627 22.2281 22 17.6606 22 13C22 7.00236 17.9385 1.95335 12.4158 0.453392C13.5681 0.156712 14.7678 0 16 0C24.8366 0 32 8.05888 32 18ZM18 13C18 8.02944 13.9706 4 9 4C2.34935 4 0 12.5071 0 18C0 27.9411 7.16344 36 16 36C20.7387 36 24.9962 33.6825 27.9259 30L9 30C9.35183 29.5514 9.72025 29.0891 10.0987 28.6142C13.6157 24.2012 18 18.6997 18 13Z" fill="rgb(119.668,88.918,207.188)" fill-rule="evenodd" />
</svg>
